<svg width="13" height="13" viewBox="0 0 13 13" fill="none" xmlns="http://www.w3.org/2000/svg">
<path d="M7.60925 4.512C7.43858 4.47467 7.23858 4.456 7.00925 4.456C6.64658 4.456 6.31058 4.53333 6.00125 4.688C5.69192 4.84267 5.42258 5.048 5.19325 5.304C4.96925 5.56 4.79325 5.856 4.66525 6.192C4.53725 6.52267 4.47325 6.864 4.47325 7.216C4.47325 7.57867 4.55325 7.864 4.71325 8.072C4.87858 8.28 5.11592 8.384 5.42525 8.384C5.57458 8.384 5.72658 8.36 5.88125 8.312C6.03592 8.264 6.18258 8.18133 6.32125 8.064C6.46525 7.94133 6.59592 7.77867 6.71325 7.576C6.83592 7.37333 6.93725 7.12 7.01725 6.816L7.60925 4.512ZM8.34525 6.64C8.24925 7.008 8.20125 7.30933 8.20125 7.544C8.20125 7.77867 8.23592 7.96267 8.30525 8.096C8.37992 8.224 8.48125 8.31467 8.60925 8.368C8.73725 8.416 8.87858 8.44 9.03325 8.44C9.27325 8.44 9.50258 8.368 9.72125 8.224C9.93992 8.08 10.1293 7.87733 10.2893 7.616C10.4546 7.35467 10.5853 7.04267 10.6813 6.68C10.7773 6.312 10.8253 5.90933 10.8253 5.472C10.8253 4.75733 10.7106 4.13067 10.4813 3.592C10.2573 3.05333 9.94525 2.60267 9.54525 2.24C9.14525 1.87733 8.67058 1.60533 8.12125 1.424C7.57192 1.24267 6.97458 1.152 6.32925 1.152C5.62525 1.152 4.96658 1.28533 4.35325 1.552C3.74525 1.81867 3.21458 2.18667 2.76125 2.656C2.31325 3.12533 1.95858 3.68 1.69725 4.32C1.44125 4.96 1.31325 5.65067 1.31325 6.392C1.31325 7.28267 1.45192 8.064 1.72925 8.736C2.00658 9.408 2.38525 9.97067 2.86525 10.424C3.35058 10.8773 3.92125 11.2187 4.57725 11.448C5.23325 11.6773 5.93725 11.792 6.68925 11.792C7.51058 11.792 8.22525 11.7067 8.83325 11.536C9.44125 11.3653 9.95325 11.1573 10.3693 10.912C10.4919 10.8373 10.6013 10.816 10.6973 10.848C10.7933 10.8747 10.8626 10.944 10.9053 11.056L11.1453 11.688C10.5799 12.0613 9.92925 12.36 9.19325 12.584C8.46258 12.808 7.62792 12.92 6.68925 12.92C5.74525 12.92 4.86792 12.7707 4.05725 12.472C3.24658 12.1733 2.54525 11.744 1.95325 11.184C1.36125 10.624 0.89725 9.94133 0.56125 9.136C0.22525 8.32533 0.05725 7.41067 0.05725 6.392C0.05725 5.816 0.12925 5.26133 0.27325 4.728C0.422583 4.18933 0.630583 3.68533 0.89725 3.216C1.16925 2.74133 1.49458 2.30933 1.87325 1.92C2.25192 1.52533 2.67325 1.18933 3.13725 0.912C3.60125 0.629333 4.10258 0.410666 4.64125 0.256C5.17992 0.101333 5.74258 0.0239992 6.32925 0.0239992C6.82525 0.0239992 7.31058 0.0799993 7.78525 0.191999C8.26525 0.298666 8.71592 0.458666 9.13725 0.672C9.56392 0.885333 9.95592 1.14933 10.3133 1.464C10.6706 1.77867 10.9773 2.13867 11.2333 2.544C11.4946 2.944 11.6973 3.38933 11.8413 3.88C11.9853 4.37067 12.0573 4.90133 12.0573 5.472C12.0573 6.04267 11.9746 6.576 11.8093 7.072C11.6439 7.56267 11.4146 7.98933 11.1213 8.352C10.8279 8.71467 10.4813 9 10.0813 9.208C9.68125 9.416 9.24925 9.52 8.78525 9.52C8.39592 9.52 8.06525 9.42933 7.79325 9.248C7.52125 9.06667 7.33725 8.776 7.24125 8.376C6.92658 8.776 6.59058 9.064 6.23325 9.24C5.88125 9.416 5.49725 9.504 5.08125 9.504C4.75592 9.504 4.47058 9.448 4.22525 9.336C3.98525 9.21867 3.78525 9.06133 3.62525 8.864C3.46525 8.66133 3.34525 8.424 3.26525 8.152C3.18525 7.87467 3.14525 7.576 3.14525 7.256C3.14525 6.952 3.18258 6.64533 3.25725 6.336C3.33725 6.02667 3.45192 5.728 3.60125 5.44C3.75592 5.152 3.94792 4.88267 4.17725 4.632C4.41192 4.376 4.68125 4.15467 4.98525 3.968C5.29458 3.78133 5.64125 3.63467 6.02525 3.528C6.40925 3.416 6.83058 3.36 7.28925 3.36C7.67325 3.36 8.00658 3.38933 8.28925 3.448C8.57192 3.50667 8.84125 3.592 9.09725 3.704L8.34525 6.64Z" fill="#F97316"/>
</svg>
