<svg width="36" height="38" viewBox="0 0 36 38" fill="none" xmlns="http://www.w3.org/2000/svg">
<path d="M3.08 0.859998V4.62H32.76V0.859998H3.08ZM5.92 11.46V14.58H14.24V11.46H5.92ZM5.04 16.06V19.18H14.28V16.06H5.04ZM21.48 16.06V19.18H30.84V16.06H21.48ZM21.48 11.46V14.58H29.88V11.46H21.48ZM4.92 26.5V30.1H28.88V26.5H4.92ZM3.44 32.1V35.94H29.2V32.1H3.44ZM15.52 2.3V19.62H20.2V2.3H15.52ZM4 20.82V24.58H26.88V37.22H31.64V20.82H4ZM0.36 6.26V15.42H4.6V9.94H31.24V15.42H35.68V6.26H0.36Z" fill="#FAFCFC"/>
<path d="M3.08 0.859998V-0.140002H2.08V0.859998H3.08ZM3.08 4.62H2.08V5.62H3.08V4.62ZM32.76 4.62V5.62H33.76V4.62H32.76ZM32.76 0.859998H33.76V-0.140002H32.76V0.859998ZM5.92 11.46V10.46H4.92V11.46H5.92ZM5.92 14.58H4.92V15.58H5.92V14.58ZM14.24 14.58V15.58H15.24V14.58H14.24ZM14.24 11.46H15.24V10.46H14.24V11.46ZM5.04 16.06V15.06H4.04V16.06H5.04ZM5.04 19.18H4.04V20.18H5.04V19.18ZM14.28 19.18V20.18H15.28V19.18H14.28ZM14.28 16.06H15.28V15.06H14.28V16.06ZM21.48 16.06V15.06H20.48V16.06H21.48ZM21.48 19.18H20.48V20.18H21.48V19.18ZM30.84 19.18V20.18H31.84V19.18H30.84ZM30.84 16.06H31.84V15.06H30.84V16.06ZM21.48 11.46V10.46H20.48V11.46H21.48ZM21.48 14.58H20.48V15.58H21.48V14.58ZM29.88 14.58V15.58H30.88V14.58H29.88ZM29.88 11.46H30.88V10.46H29.88V11.46ZM4.92 26.5V25.5H3.92V26.5H4.92ZM4.92 30.1H3.92V31.1H4.92V30.1ZM28.88 30.1V31.1H29.88V30.1H28.88ZM28.88 26.5H29.88V25.5H28.88V26.5ZM3.44 32.1V31.1H2.44V32.1H3.44ZM3.44 35.94H2.44V36.94H3.44V35.94ZM29.2 35.94V36.94H30.2V35.94H29.2ZM29.2 32.1H30.2V31.1H29.2V32.1ZM15.52 2.3V1.3H14.52V2.3H15.52ZM15.52 19.62H14.52V20.62H15.52V19.62ZM20.2 19.62V20.62H21.2V19.62H20.2ZM20.2 2.3H21.2V1.3H20.2V2.3ZM4 20.82V19.82H3V20.82H4ZM4 24.58H3V25.58H4V24.58ZM26.88 24.58H27.88V23.58H26.88V24.58ZM26.88 37.22H25.88V38.22H26.88V37.22ZM31.64 37.22V38.22H32.64V37.22H31.64ZM31.64 20.82H32.64V19.82H31.64V20.82ZM0.36 6.26V5.26H-0.64V6.26H0.36ZM0.36 15.42H-0.64V16.42H0.36V15.42ZM4.6 15.42V16.42H5.6V15.42H4.6ZM4.6 9.94V8.94H3.6V9.94H4.6ZM31.24 9.94H32.24V8.94H31.24V9.94ZM31.24 15.42H30.24V16.42H31.24V15.42ZM35.68 15.42V16.42H36.68V15.42H35.68ZM35.68 6.26H36.68V5.26H35.68V6.26ZM2.08 0.859998V4.62H4.08V0.859998H2.08ZM3.08 5.62H32.76V3.62H3.08V5.62ZM33.76 4.62V0.859998H31.76V4.62H33.76ZM32.76 -0.140002H3.08V1.86H32.76V-0.140002ZM4.92 11.46V14.58H6.92V11.46H4.92ZM5.92 15.58H14.24V13.58H5.92V15.58ZM15.24 14.58V11.46H13.24V14.58H15.24ZM14.24 10.46H5.92V12.46H14.24V10.46ZM4.04 16.06V19.18H6.04V16.06H4.04ZM5.04 20.18H14.28V18.18H5.04V20.18ZM15.28 19.18V16.06H13.28V19.18H15.28ZM14.28 15.06H5.04V17.06H14.28V15.06ZM20.48 16.06V19.18H22.48V16.06H20.48ZM21.48 20.18H30.84V18.18H21.48V20.18ZM31.84 19.18V16.06H29.84V19.18H31.84ZM30.84 15.06H21.48V17.06H30.84V15.06ZM20.48 11.46V14.58H22.48V11.46H20.48ZM21.48 15.58H29.88V13.58H21.48V15.58ZM30.88 14.58V11.46H28.88V14.58H30.88ZM29.88 10.46H21.48V12.46H29.88V10.46ZM3.92 26.5V30.1H5.92V26.5H3.92ZM4.92 31.1H28.88V29.1H4.92V31.1ZM29.88 30.1V26.5H27.88V30.1H29.88ZM28.88 25.5H4.92V27.5H28.88V25.5ZM2.44 32.1V35.94H4.44V32.1H2.44ZM3.44 36.94H29.2V34.94H3.44V36.94ZM30.2 35.94V32.1H28.2V35.94H30.2ZM29.2 31.1H3.44V33.1H29.2V31.1ZM14.52 2.3V19.62H16.52V2.3H14.52ZM15.52 20.62H20.2V18.62H15.52V20.62ZM21.2 19.62V2.3H19.2V19.62H21.2ZM20.2 1.3H15.52V3.3H20.2V1.3ZM3 20.82V24.58H5V20.82H3ZM4 25.58H26.88V23.58H4V25.58ZM25.88 24.58V37.22H27.88V24.58H25.88ZM26.88 38.22H31.64V36.22H26.88V38.22ZM32.64 37.22V20.82H30.64V37.22H32.64ZM31.64 19.82H4V21.82H31.64V19.82ZM-0.64 6.26V15.42H1.36V6.26H-0.64ZM0.36 16.42H4.6V14.42H0.36V16.42ZM5.6 15.42V9.94H3.6V15.42H5.6ZM4.6 10.94H31.24V8.94H4.6V10.94ZM30.24 9.94V15.42H32.24V9.94H30.24ZM31.24 16.42H35.68V14.42H31.24V16.42ZM36.68 15.42V6.26H34.68V15.42H36.68ZM35.68 5.26H0.36V7.26H35.68V5.26Z" fill="#1F1F1F"/>
</svg>
